<?xml version="1.0" standalone="no"?>
 <!DOCTYPE svg PUBLIC "-//W3C//DTD SVG 1.1//EN" 
 "http://www.w3.org/Graphics/SVG/1.1/DTD/svg11.dtd"> 
<svg xmlns="http://www.w3.org/2000/svg" version="1.1" 
    width="29.7002cm" height="21.0007cm" viewBox="0 0 116930 82680 ">
<title>SVG Picture created as noname-B_Cu.svg date 2019/09/10 00:00:57 </title>
  <desc>Picture generated by PCBNEW </desc>
<g style="fill:#000000; fill-opacity:1;stroke:#000000; stroke-opacity:1;
stroke-linecap:round; stroke-linejoin:round; "
 transform="translate(0 0) scale(1 1)">
</g>
<g style="fill:#000000; fill-opacity:0.0; 
stroke:#000000; stroke-width:-0.000393701; stroke-opacity:1; 
stroke-linecap:round; stroke-linejoin:round;">
</g>
<g style="fill:#000000; fill-opacity:0.0; 
stroke:#000000; stroke-width:59.0551; stroke-opacity:1; 
stroke-linecap:round; stroke-linejoin:round;">
<path d="M51181 48500
L51181 30314
" />
<path d="M65000 48500
L51181 48500
" />
<path d="M65000 30314
L65000 48500
" />
<path d="M51181 30314
L65000 30314
" />
<g >
</g>
<g style="fill:#000000; fill-opacity:0.0; 
stroke:#000000; stroke-width:826.772; stroke-opacity:1; 
stroke-linecap:round; stroke-linejoin:round;">
<path d="M56500 47000
L56500 47000
" />
</g>
<g style="fill:#000000; fill-opacity:0.0; 
stroke:#000000; stroke-width:0; stroke-opacity:1; 
stroke-linecap:round; stroke-linejoin:round;">
</g>
<g style="fill:#000000; fill-opacity:1.0; 
stroke:#000000; stroke-width:0; stroke-opacity:1; 
stroke-linecap:round; stroke-linejoin:round;">
<path style="fill:#000000; fill-opacity:1.0; 
stroke:#000000; stroke-width:0; stroke-opacity:1; 
stroke-linecap:round; stroke-linejoin:round;fill-rule:evenodd;"
d="M 55913,47413
55086,47413
55086,46586
55913,46586
55913,47413
Z" /> 
</g>
<g >
</g>
<g style="fill:#000000; fill-opacity:1.0; 
stroke:#000000; stroke-width:0; stroke-opacity:1; 
stroke-linecap:round; stroke-linejoin:round;">
<path style="fill:#000000; fill-opacity:1.0; 
stroke:#000000; stroke-width:0; stroke-opacity:1; 
stroke-linecap:round; stroke-linejoin:round;fill-rule:evenodd;"
d="M 61375,46008
61120,46008
61120,45591
61375,45591
61375,46008
Z" /> 
<path style="fill:#000000; fill-opacity:1.0; 
stroke:#000000; stroke-width:0; stroke-opacity:1; 
stroke-linecap:round; stroke-linejoin:round;fill-rule:evenodd;"
d="M 60627,46008
60372,46008
60372,45591
60627,45591
60627,46008
Z" /> 
<path style="fill:#000000; fill-opacity:1.0; 
stroke:#000000; stroke-width:0; stroke-opacity:1; 
stroke-linecap:round; stroke-linejoin:round;fill-rule:evenodd;"
d="M 60627,46874
60372,46874
60372,46457
60627,46457
60627,46874
Z" /> 
<path style="fill:#000000; fill-opacity:1.0; 
stroke:#000000; stroke-width:0; stroke-opacity:1; 
stroke-linecap:round; stroke-linejoin:round;fill-rule:evenodd;"
d="M 61001,46874
60746,46874
60746,46457
61001,46457
61001,46874
Z" /> 
<path style="fill:#000000; fill-opacity:1.0; 
stroke:#000000; stroke-width:0; stroke-opacity:1; 
stroke-linecap:round; stroke-linejoin:round;fill-rule:evenodd;"
d="M 61375,46874
61120,46874
61120,46457
61375,46457
61375,46874
Z" /> 
</g>
<g >
</g>
<g style="fill:#000000; fill-opacity:1.0; 
stroke:#000000; stroke-width:0; stroke-opacity:1; 
stroke-linecap:round; stroke-linejoin:round;">
</g>
<g style="fill:#000000; fill-opacity:1.0; 
stroke:#000000; stroke-width:826.772; stroke-opacity:1; 
stroke-linecap:round; stroke-linejoin:round;">
</g>
<g style="fill:#000000; fill-opacity:0.0; 
stroke:#000000; stroke-width:826.772; stroke-opacity:1; 
stroke-linecap:round; stroke-linejoin:round;">
<path d="M55500 36500
L55500 36500
" />
<path d="M58500 39500
L58500 39500
" />
<path d="M56500 36500
L56500 36500
" />
<path d="M57500 39500
L57500 39500
" />
<path d="M57500 36500
L57500 36500
" />
<path d="M56500 39500
L56500 39500
" />
<path d="M58500 36500
L58500 36500
" />
</g>
<g style="fill:#000000; fill-opacity:0.0; 
stroke:#000000; stroke-width:0; stroke-opacity:1; 
stroke-linecap:round; stroke-linejoin:round;">
</g>
<g style="fill:#000000; fill-opacity:1.0; 
stroke:#000000; stroke-width:0; stroke-opacity:1; 
stroke-linecap:round; stroke-linejoin:round;">
<path style="fill:#000000; fill-opacity:1.0; 
stroke:#000000; stroke-width:0; stroke-opacity:1; 
stroke-linecap:round; stroke-linejoin:round;fill-rule:evenodd;"
d="M 55913,39913
55086,39913
55086,39086
55913,39086
55913,39913
Z" /> 
</g>
<g >
</g>
<g style="fill:#000000; fill-opacity:1.0; 
stroke:#000000; stroke-width:0; stroke-opacity:1; 
stroke-linecap:round; stroke-linejoin:round;">
<path style="fill:#000000; fill-opacity:1.0; 
stroke:#000000; stroke-width:0; stroke-opacity:1; 
stroke-linecap:round; stroke-linejoin:round;fill-rule:evenodd;"
d="M 54064,35392
54070,35392
54076,35394
54081,35396
54086,35398
54091,35401
54096,35405
54100,35409
54104,35413
54108,35417
54111,35422
54113,35428
54115,35433
54116,35439
54117,35444
54118,35450
54118,36100
54117,36106
54116,36111
54115,36117
54113,36122
54111,36128
54108,36133
54104,36137
54100,36142
54096,36146
54091,36149
54086,36152
54081,36154
54076,36156
54070,36158
54064,36159
54059,36159
53940,36159
53935,36159
53929,36158
53923,36156
53918,36154
53913,36152
53908,36149
53903,36146
53899,36142
53895,36137
53891,36133
53888,36128
53886,36122
53884,36117
53883,36111
53882,36106
53881,36100
53881,35450
53882,35444
53883,35439
53884,35433
53886,35428
53888,35422
53891,35417
53895,35413
53899,35409
53903,35405
53908,35401
53913,35398
53918,35396
53923,35394
53929,35392
53935,35392
53940,35391
54059,35391
54064,35392
Z" /> 
<path style="fill:#000000; fill-opacity:1.0; 
stroke:#000000; stroke-width:0; stroke-opacity:1; 
stroke-linecap:round; stroke-linejoin:round;fill-rule:evenodd;"
d="M 53564,35392
53570,35392
53576,35394
53581,35396
53586,35398
53591,35401
53596,35405
53600,35409
53604,35413
53608,35417
53611,35422
53613,35428
53615,35433
53616,35439
53617,35444
53618,35450
53618,36100
53617,36106
53616,36111
53615,36117
53613,36122
53611,36128
53608,36133
53604,36137
53600,36142
53596,36146
53591,36149
53586,36152
53581,36154
53576,36156
53570,36158
53564,36159
53559,36159
53440,36159
53435,36159
53429,36158
53423,36156
53418,36154
53413,36152
53408,36149
53403,36146
53399,36142
53395,36137
53391,36133
53388,36128
53386,36122
53384,36117
53383,36111
53382,36106
53381,36100
53381,35450
53382,35444
53383,35439
53384,35433
53386,35428
53388,35422
53391,35417
53395,35413
53399,35409
53403,35405
53408,35401
53413,35398
53418,35396
53423,35394
53429,35392
53435,35392
53440,35391
53559,35391
53564,35392
Z" /> 
<path style="fill:#000000; fill-opacity:1.0; 
stroke:#000000; stroke-width:0; stroke-opacity:1; 
stroke-linecap:round; stroke-linejoin:round;fill-rule:evenodd;"
d="M 53064,35392
53070,35392
53076,35394
53081,35396
53086,35398
53091,35401
53096,35405
53100,35409
53104,35413
53108,35417
53111,35422
53113,35428
53115,35433
53116,35439
53117,35444
53118,35450
53118,36100
53117,36106
53116,36111
53115,36117
53113,36122
53111,36128
53108,36133
53104,36137
53100,36142
53096,36146
53091,36149
53086,36152
53081,36154
53076,36156
53070,36158
53064,36159
53059,36159
52940,36159
52935,36159
52929,36158
52923,36156
52918,36154
52913,36152
52908,36149
52903,36146
52899,36142
52895,36137
52891,36133
52888,36128
52886,36122
52884,36117
52883,36111
52882,36106
52881,36100
52881,35450
52882,35444
52883,35439
52884,35433
52886,35428
52888,35422
52891,35417
52895,35413
52899,35409
52903,35405
52908,35401
52913,35398
52918,35396
52923,35394
52929,35392
52935,35392
52940,35391
53059,35391
53064,35392
Z" /> 
<path style="fill:#000000; fill-opacity:1.0; 
stroke:#000000; stroke-width:0; stroke-opacity:1; 
stroke-linecap:round; stroke-linejoin:round;fill-rule:evenodd;"
d="M 52564,35392
52570,35392
52576,35394
52581,35396
52586,35398
52591,35401
52596,35405
52600,35409
52604,35413
52608,35417
52611,35422
52613,35428
52615,35433
52616,35439
52617,35444
52618,35450
52618,36100
52617,36106
52616,36111
52615,36117
52613,36122
52611,36128
52608,36133
52604,36137
52600,36142
52596,36146
52591,36149
52586,36152
52581,36154
52576,36156
52570,36158
52564,36159
52559,36159
52440,36159
52435,36159
52429,36158
52423,36156
52418,36154
52413,36152
52408,36149
52403,36146
52399,36142
52395,36137
52391,36133
52388,36128
52386,36122
52384,36117
52383,36111
52382,36106
52381,36100
52381,35450
52382,35444
52383,35439
52384,35433
52386,35428
52388,35422
52391,35417
52395,35413
52399,35409
52403,35405
52408,35401
52413,35398
52418,35396
52423,35394
52429,35392
52435,35392
52440,35391
52559,35391
52564,35392
Z" /> 
<path style="fill:#000000; fill-opacity:1.0; 
stroke:#000000; stroke-width:0; stroke-opacity:1; 
stroke-linecap:round; stroke-linejoin:round;fill-rule:evenodd;"
d="M 52564,37340
52570,37341
52576,37343
52581,37345
52586,37347
52591,37350
52596,37353
52600,37357
52604,37362
52608,37366
52611,37371
52613,37377
52615,37382
52616,37388
52617,37393
52618,37399
52618,38049
52617,38055
52616,38060
52615,38066
52613,38071
52611,38077
52608,38082
52604,38086
52600,38090
52596,38094
52591,38098
52586,38101
52581,38103
52576,38105
52570,38107
52564,38107
52559,38108
52440,38108
52435,38107
52429,38107
52423,38105
52418,38103
52413,38101
52408,38098
52403,38094
52399,38090
52395,38086
52391,38082
52388,38077
52386,38071
52384,38066
52383,38060
52382,38055
52381,38049
52381,37399
52382,37393
52383,37388
52384,37382
52386,37377
52388,37371
52391,37366
52395,37362
52399,37357
52403,37353
52408,37350
52413,37347
52418,37345
52423,37343
52429,37341
52435,37340
52440,37340
52559,37340
52564,37340
Z" /> 
<path style="fill:#000000; fill-opacity:1.0; 
stroke:#000000; stroke-width:0; stroke-opacity:1; 
stroke-linecap:round; stroke-linejoin:round;fill-rule:evenodd;"
d="M 53064,37340
53070,37341
53076,37343
53081,37345
53086,37347
53091,37350
53096,37353
53100,37357
53104,37362
53108,37366
53111,37371
53113,37377
53115,37382
53116,37388
53117,37393
53118,37399
53118,38049
53117,38055
53116,38060
53115,38066
53113,38071
53111,38077
53108,38082
53104,38086
53100,38090
53096,38094
53091,38098
53086,38101
53081,38103
53076,38105
53070,38107
53064,38107
53059,38108
52940,38108
52935,38107
52929,38107
52923,38105
52918,38103
52913,38101
52908,38098
52903,38094
52899,38090
52895,38086
52891,38082
52888,38077
52886,38071
52884,38066
52883,38060
52882,38055
52881,38049
52881,37399
52882,37393
52883,37388
52884,37382
52886,37377
52888,37371
52891,37366
52895,37362
52899,37357
52903,37353
52908,37350
52913,37347
52918,37345
52923,37343
52929,37341
52935,37340
52940,37340
53059,37340
53064,37340
Z" /> 
<path style="fill:#000000; fill-opacity:1.0; 
stroke:#000000; stroke-width:0; stroke-opacity:1; 
stroke-linecap:round; stroke-linejoin:round;fill-rule:evenodd;"
d="M 53564,37340
53570,37341
53576,37343
53581,37345
53586,37347
53591,37350
53596,37353
53600,37357
53604,37362
53608,37366
53611,37371
53613,37377
53615,37382
53616,37388
53617,37393
53618,37399
53618,38049
53617,38055
53616,38060
53615,38066
53613,38071
53611,38077
53608,38082
53604,38086
53600,38090
53596,38094
53591,38098
53586,38101
53581,38103
53576,38105
53570,38107
53564,38107
53559,38108
53440,38108
53435,38107
53429,38107
53423,38105
53418,38103
53413,38101
53408,38098
53403,38094
53399,38090
53395,38086
53391,38082
53388,38077
53386,38071
53384,38066
53383,38060
53382,38055
53381,38049
53381,37399
53382,37393
53383,37388
53384,37382
53386,37377
53388,37371
53391,37366
53395,37362
53399,37357
53403,37353
53408,37350
53413,37347
53418,37345
53423,37343
53429,37341
53435,37340
53440,37340
53559,37340
53564,37340
Z" /> 
<path style="fill:#000000; fill-opacity:1.0; 
stroke:#000000; stroke-width:0; stroke-opacity:1; 
stroke-linecap:round; stroke-linejoin:round;fill-rule:evenodd;"
d="M 54064,37340
54070,37341
54076,37343
54081,37345
54086,37347
54091,37350
54096,37353
54100,37357
54104,37362
54108,37366
54111,37371
54113,37377
54115,37382
54116,37388
54117,37393
54118,37399
54118,38049
54117,38055
54116,38060
54115,38066
54113,38071
54111,38077
54108,38082
54104,38086
54100,38090
54096,38094
54091,38098
54086,38101
54081,38103
54076,38105
54070,38107
54064,38107
54059,38108
53940,38108
53935,38107
53929,38107
53923,38105
53918,38103
53913,38101
53908,38098
53903,38094
53899,38090
53895,38086
53891,38082
53888,38077
53886,38071
53884,38066
53883,38060
53882,38055
53881,38049
53881,37399
53882,37393
53883,37388
53884,37382
53886,37377
53888,37371
53891,37366
53895,37362
53899,37357
53903,37353
53908,37350
53913,37347
53918,37345
53923,37343
53929,37341
53935,37340
53940,37340
54059,37340
54064,37340
Z" /> 
</g>
<g >
</g>
<g style="fill:#000000; fill-opacity:1.0; 
stroke:#000000; stroke-width:0; stroke-opacity:1; 
stroke-linecap:round; stroke-linejoin:round;">
<circle cx="63000" cy="36110.2" r="984.252" /> 
</g>
<g style="fill:#000000; fill-opacity:1.0; 
stroke:#000000; stroke-width:39.3701; stroke-opacity:1; 
stroke-linecap:round; stroke-linejoin:round;">
</g>
<g style="fill:#000000; fill-opacity:1.0; 
stroke:#000000; stroke-width:0; stroke-opacity:1; 
stroke-linecap:round; stroke-linejoin:round;">
<circle cx="63000" cy="39889.8" r="984.252" /> 
</g>
<g style="fill:#000000; fill-opacity:1.0; 
stroke:#000000; stroke-width:39.3701; stroke-opacity:1; 
stroke-linecap:round; stroke-linejoin:round;">
</g>
<g style="fill:#000000; fill-opacity:1.0; 
stroke:#000000; stroke-width:0; stroke-opacity:1; 
stroke-linecap:round; stroke-linejoin:round;">
<circle cx="60047.2" cy="38984.3" r="413.386" /> 
</g>
<g style="fill:#000000; fill-opacity:1.0; 
stroke:#000000; stroke-width:39.3701; stroke-opacity:1; 
stroke-linecap:round; stroke-linejoin:round;">
</g>
<g style="fill:#000000; fill-opacity:1.0; 
stroke:#000000; stroke-width:0; stroke-opacity:1; 
stroke-linecap:round; stroke-linejoin:round;">
<circle cx="60047.2" cy="38000" r="413.386" /> 
</g>
<g style="fill:#000000; fill-opacity:1.0; 
stroke:#000000; stroke-width:39.3701; stroke-opacity:1; 
stroke-linecap:round; stroke-linejoin:round;">
</g>
<g style="fill:#000000; fill-opacity:1.0; 
stroke:#000000; stroke-width:0; stroke-opacity:1; 
stroke-linecap:round; stroke-linejoin:round;">
<path style="fill:#000000; fill-opacity:1.0; 
stroke:#000000; stroke-width:0; stroke-opacity:1; 
stroke-linecap:round; stroke-linejoin:round;fill-rule:evenodd;"
d="M 60460,37429
59633,37429
59633,36602
60460,36602
60460,37429
Z" /> 
</g>
<g >
</g>
<g style="fill:#000000; fill-opacity:1.0; 
stroke:#000000; stroke-width:0; stroke-opacity:1; 
stroke-linecap:round; stroke-linejoin:round;">
<path style="fill:#000000; fill-opacity:1.0; 
stroke:#000000; stroke-width:0; stroke-opacity:1; 
stroke-linecap:round; stroke-linejoin:round;fill-rule:evenodd;"
d="M 56343,34724
56352,34726
56362,34728
56370,34731
56379,34735
56387,34740
56395,34746
56402,34752
56408,34759
56413,34767
56418,34775
56422,34783
56425,34792
56428,34801
56429,34810
56430,34820
56430,35179
56429,35189
56428,35198
56425,35207
56422,35216
56418,35224
56413,35232
56408,35240
56402,35247
56395,35253
56387,35259
56379,35264
56370,35268
56362,35271
56352,35273
56343,35275
56334,35275
56142,35275
56132,35275
56123,35273
56114,35271
56105,35268
56096,35264
56088,35259
56081,35253
56074,35247
56068,35240
56062,35232
56057,35224
56053,35216
56050,35207
56048,35198
56046,35189
56046,35179
56046,34820
56046,34810
56048,34801
56050,34792
56053,34783
56057,34775
56062,34767
56068,34759
56074,34752
56081,34746
56088,34740
56096,34735
56105,34731
56114,34728
56123,34726
56132,34724
56142,34724
56334,34724
56343,34724
Z" /> 
<path style="fill:#000000; fill-opacity:1.0; 
stroke:#000000; stroke-width:0; stroke-opacity:1; 
stroke-linecap:round; stroke-linejoin:round;fill-rule:evenodd;"
d="M 55605,34724
55614,34726
55623,34728
55632,34731
55641,34735
55649,34740
55656,34746
55663,34752
55670,34759
55675,34767
55680,34775
55684,34783
55687,34792
55690,34801
55691,34810
55691,34820
55691,35179
55691,35189
55690,35198
55687,35207
55684,35216
55680,35224
55675,35232
55670,35240
55663,35247
55656,35253
55649,35259
55641,35264
55632,35268
55623,35271
55614,35273
55605,35275
55595,35275
55404,35275
55394,35275
55385,35273
55376,35271
55367,35268
55358,35264
55350,35259
55343,35253
55336,35247
55329,35240
55324,35232
55319,35224
55315,35216
55312,35207
55309,35198
55308,35189
55308,35179
55308,34820
55308,34810
55309,34801
55312,34792
55315,34783
55319,34775
55324,34767
55329,34759
55336,34752
55343,34746
55350,34740
55358,34735
55367,34731
55376,34728
55385,34726
55394,34724
55404,34724
55595,34724
55605,34724
Z" /> 
</g>
<g >
</g>
<g style="fill:#000000; fill-opacity:1.0; 
stroke:#000000; stroke-width:0; stroke-opacity:1; 
stroke-linecap:round; stroke-linejoin:round;">
<path style="fill:#000000; fill-opacity:1.0; 
stroke:#000000; stroke-width:0; stroke-opacity:1; 
stroke-linecap:round; stroke-linejoin:round;fill-rule:evenodd;"
d="M 60689,42320
60698,42321
60707,42324
60716,42327
60724,42331
60732,42336
60740,42341
60747,42347
60753,42354
60759,42362
60764,42370
60768,42379
60771,42387
60773,42397
60775,42406
60775,42415
60775,42607
60775,42617
60773,42626
60771,42635
60768,42644
60764,42653
60759,42661
60753,42668
60747,42675
60740,42681
60732,42687
60724,42692
60716,42696
60707,42699
60698,42701
60689,42703
60679,42703
60320,42703
60310,42703
60301,42701
60292,42699
60283,42696
60275,42692
60267,42687
60259,42681
60252,42675
60246,42668
60240,42661
60235,42653
60231,42644
60228,42635
60226,42626
60224,42617
60224,42607
60224,42415
60224,42406
60226,42397
60228,42387
60231,42379
60235,42370
60240,42362
60246,42354
60252,42347
60259,42341
60267,42336
60275,42331
60283,42327
60292,42324
60301,42321
60310,42320
60320,42319
60679,42319
60689,42320
Z" /> 
<path style="fill:#000000; fill-opacity:1.0; 
stroke:#000000; stroke-width:0; stroke-opacity:1; 
stroke-linecap:round; stroke-linejoin:round;fill-rule:evenodd;"
d="M 60689,43058
60698,43059
60707,43062
60716,43065
60724,43069
60732,43074
60740,43079
60747,43086
60753,43093
60759,43100
60764,43108
60768,43117
60771,43126
60773,43135
60775,43144
60775,43154
60775,43345
60775,43355
60773,43364
60771,43373
60768,43382
60764,43391
60759,43399
60753,43406
60747,43413
60740,43420
60732,43425
60724,43430
60716,43434
60707,43437
60698,43440
60689,43441
60679,43441
60320,43441
60310,43441
60301,43440
60292,43437
60283,43434
60275,43430
60267,43425
60259,43420
60252,43413
60246,43406
60240,43399
60235,43391
60231,43382
60228,43373
60226,43364
60224,43355
60224,43345
60224,43154
60224,43144
60226,43135
60228,43126
60231,43117
60235,43108
60240,43100
60246,43093
60252,43086
60259,43079
60267,43074
60275,43069
60283,43065
60292,43062
60301,43059
60310,43058
60320,43058
60679,43058
60689,43058
Z" /> 
</g>
<g >
</g>
<g style="fill:#000000; fill-opacity:1.0; 
stroke:#000000; stroke-width:0; stroke-opacity:1; 
stroke-linecap:round; stroke-linejoin:round;">
</g>
<g style="fill:#000000; fill-opacity:1.0; 
stroke:#000000; stroke-width:826.772; stroke-opacity:1; 
stroke-linecap:round; stroke-linejoin:round;">
</g>
<g style="fill:#000000; fill-opacity:0.0; 
stroke:#000000; stroke-width:826.772; stroke-opacity:1; 
stroke-linecap:round; stroke-linejoin:round;">
<path d="M58500 43980
L58500 44019
" />
<path d="M57500 43980
L57500 44019
" />
<path d="M56500 43980
L56500 44019
" />
</g>
<g style="fill:#000000; fill-opacity:0.0; 
stroke:#000000; stroke-width:0; stroke-opacity:1; 
stroke-linecap:round; stroke-linejoin:round;">
</g>
<g style="fill:#000000; fill-opacity:1.0; 
stroke:#000000; stroke-width:0; stroke-opacity:1; 
stroke-linecap:round; stroke-linejoin:round;">
<path style="fill:#000000; fill-opacity:1.0; 
stroke:#000000; stroke-width:0; stroke-opacity:1; 
stroke-linecap:round; stroke-linejoin:round;fill-rule:evenodd;"
d="M 55806,43567
55817,43569
55828,43572
55839,43575
55850,43580
55860,43586
55869,43593
55878,43601
55886,43610
55893,43619
55899,43629
55904,43640
55908,43651
55911,43662
55912,43674
55913,43685
55913,44314
55912,44325
55911,44337
55908,44348
55904,44359
55899,44370
55893,44380
55886,44389
55878,44398
55869,44406
55860,44413
55850,44419
55839,44424
55828,44427
55817,44430
55806,44432
55794,44433
55205,44433
55194,44432
55182,44430
55171,44427
55160,44424
55149,44419
55139,44413
55130,44406
55121,44398
55113,44389
55106,44380
55100,44370
55095,44359
55091,44348
55088,44337
55087,44325
55086,44314
55086,43685
55087,43674
55088,43662
55091,43651
55095,43640
55100,43629
55106,43619
55113,43610
55121,43601
55130,43593
55139,43586
55149,43580
55160,43575
55171,43572
55182,43569
55194,43567
55205,43566
55794,43566
55806,43567
Z" /> 
</g>
<g >
</g>
<g style="fill:#000000; fill-opacity:1.0; 
stroke:#000000; stroke-width:0; stroke-opacity:1; 
stroke-linecap:round; stroke-linejoin:round;">
</g>
<g style="fill:#000000; fill-opacity:1.0; 
stroke:#000000; stroke-width:826.772; stroke-opacity:1; 
stroke-linecap:round; stroke-linejoin:round;">
</g>
<g style="fill:#000000; fill-opacity:0.0; 
stroke:#000000; stroke-width:826.772; stroke-opacity:1; 
stroke-linecap:round; stroke-linejoin:round;">
<path d="M60000 32480
L60000 32519
" />
<path d="M59000 32480
L59000 32519
" />
<path d="M58000 32480
L58000 32519
" />
</g>
<g style="fill:#000000; fill-opacity:0.0; 
stroke:#000000; stroke-width:0; stroke-opacity:1; 
stroke-linecap:round; stroke-linejoin:round;">
</g>
<g style="fill:#000000; fill-opacity:1.0; 
stroke:#000000; stroke-width:0; stroke-opacity:1; 
stroke-linecap:round; stroke-linejoin:round;">
<path style="fill:#000000; fill-opacity:1.0; 
stroke:#000000; stroke-width:0; stroke-opacity:1; 
stroke-linecap:round; stroke-linejoin:round;fill-rule:evenodd;"
d="M 57306,32067
57317,32069
57328,32072
57339,32075
57350,32080
57360,32086
57369,32093
57378,32101
57386,32110
57393,32119
57399,32129
57404,32140
57408,32151
57411,32162
57412,32174
57413,32185
57413,32814
57412,32825
57411,32837
57408,32848
57404,32859
57399,32870
57393,32880
57386,32889
57378,32898
57369,32906
57360,32913
57350,32919
57339,32924
57328,32927
57317,32930
57306,32932
57294,32933
56705,32933
56694,32932
56682,32930
56671,32927
56660,32924
56649,32919
56639,32913
56630,32906
56621,32898
56613,32889
56606,32880
56600,32870
56595,32859
56591,32848
56588,32837
56587,32825
56586,32814
56586,32185
56587,32174
56588,32162
56591,32151
56595,32140
56600,32129
56606,32119
56613,32110
56621,32101
56630,32093
56639,32086
56649,32080
56660,32075
56671,32072
56682,32069
56694,32067
56705,32066
57294,32066
57306,32067
Z" /> 
</g>
<g >
</g>
<g style="fill:#000000; fill-opacity:1.0; 
stroke:#000000; stroke-width:0; stroke-opacity:1; 
stroke-linecap:round; stroke-linejoin:round;">
<path style="fill:#000000; fill-opacity:1.0; 
stroke:#000000; stroke-width:0; stroke-opacity:1; 
stroke-linecap:round; stroke-linejoin:round;fill-rule:evenodd;"
d="M 61513,43072
61986,43072
61986,43427
61513,43427
61513,43072
Z" /> 
<path style="fill:#000000; fill-opacity:1.0; 
stroke:#000000; stroke-width:0; stroke-opacity:1; 
stroke-linecap:round; stroke-linejoin:round;fill-rule:evenodd;"
d="M 61513,41773
61986,41773
61986,42127
61513,42127
61513,41773
Z" /> 
</g>
<g >
</g>
<g style="fill:#000000; fill-opacity:1.0; 
stroke:#000000; stroke-width:0; stroke-opacity:1; 
stroke-linecap:round; stroke-linejoin:round;">
<path style="fill:#000000; fill-opacity:1.0; 
stroke:#000000; stroke-width:0; stroke-opacity:1; 
stroke-linecap:round; stroke-linejoin:round;fill-rule:evenodd;"
d="M 63236,42127
62763,42127
62763,41773
63236,41773
63236,42127
Z" /> 
<path style="fill:#000000; fill-opacity:1.0; 
stroke:#000000; stroke-width:0; stroke-opacity:1; 
stroke-linecap:round; stroke-linejoin:round;fill-rule:evenodd;"
d="M 63236,43427
62763,43427
62763,43072
63236,43072
63236,43427
Z" /> 
</g>
<g >
</g>
<g style="fill:#000000; fill-opacity:1.0; 
stroke:#000000; stroke-width:0; stroke-opacity:1; 
stroke-linecap:round; stroke-linejoin:round;">
<path style="fill:#000000; fill-opacity:1.0; 
stroke:#000000; stroke-width:0; stroke-opacity:1; 
stroke-linecap:round; stroke-linejoin:round;fill-rule:evenodd;"
d="M 53367,39224
53376,39226
53385,39228
53394,39231
53403,39235
53411,39240
53418,39246
53425,39252
53431,39259
53437,39267
53442,39275
53446,39283
53449,39292
53451,39301
53453,39310
53453,39320
53453,39679
53453,39689
53451,39698
53449,39707
53446,39716
53442,39724
53437,39732
53431,39740
53425,39747
53418,39753
53411,39759
53403,39764
53394,39768
53385,39771
53376,39773
53367,39775
53357,39775
53165,39775
53156,39775
53147,39773
53137,39771
53129,39768
53120,39764
53112,39759
53104,39753
53097,39747
53091,39740
53086,39732
53081,39724
53077,39716
53074,39707
53071,39698
53070,39689
53069,39679
53069,39320
53070,39310
53071,39301
53074,39292
53077,39283
53081,39275
53086,39267
53091,39259
53097,39252
53104,39246
53112,39240
53120,39235
53129,39231
53137,39228
53147,39226
53156,39224
53165,39224
53357,39224
53367,39224
Z" /> 
<path style="fill:#000000; fill-opacity:1.0; 
stroke:#000000; stroke-width:0; stroke-opacity:1; 
stroke-linecap:round; stroke-linejoin:round;fill-rule:evenodd;"
d="M 54105,39224
54114,39226
54123,39228
54132,39231
54141,39235
54149,39240
54156,39246
54163,39252
54170,39259
54175,39267
54180,39275
54184,39283
54187,39292
54190,39301
54191,39310
54191,39320
54191,39679
54191,39689
54190,39698
54187,39707
54184,39716
54180,39724
54175,39732
54170,39740
54163,39747
54156,39753
54149,39759
54141,39764
54132,39768
54123,39771
54114,39773
54105,39775
54095,39775
53904,39775
53894,39775
53885,39773
53876,39771
53867,39768
53858,39764
53850,39759
53843,39753
53836,39747
53829,39740
53824,39732
53819,39724
53815,39716
53812,39707
53809,39698
53808,39689
53808,39679
53808,39320
53808,39310
53809,39301
53812,39292
53815,39283
53819,39275
53824,39267
53829,39259
53836,39252
53843,39246
53850,39240
53858,39235
53867,39231
53876,39228
53885,39226
53894,39224
53904,39224
54095,39224
54105,39224
Z" /> 
</g>
<g >
</g>
<g style="fill:#000000; fill-opacity:1.0; 
stroke:#000000; stroke-width:0; stroke-opacity:1; 
stroke-linecap:round; stroke-linejoin:round;">
<circle cx="53015.7" cy="33000" r="413.386" /> 
</g>
<g style="fill:#000000; fill-opacity:1.0; 
stroke:#000000; stroke-width:39.3701; stroke-opacity:1; 
stroke-linecap:round; stroke-linejoin:round;">
</g>
<g style="fill:#000000; fill-opacity:1.0; 
stroke:#000000; stroke-width:0; stroke-opacity:1; 
stroke-linecap:round; stroke-linejoin:round;">
<path style="fill:#000000; fill-opacity:1.0; 
stroke:#000000; stroke-width:0; stroke-opacity:1; 
stroke-linecap:round; stroke-linejoin:round;fill-rule:evenodd;"
d="M 54413,32586
54413,33413
53586,33413
53586,32586
54413,32586
Z" /> 
</g>
<g >
</g>
<g style="fill:#000000; fill-opacity:1.0; 
stroke:#000000; stroke-width:0; stroke-opacity:1; 
stroke-linecap:round; stroke-linejoin:round;">
<path style="fill:#000000; fill-opacity:1.0; 
stroke:#000000; stroke-width:0; stroke-opacity:1; 
stroke-linecap:round; stroke-linejoin:round;fill-rule:evenodd;"
d="M 53367,43724
53376,43726
53385,43728
53394,43731
53403,43735
53411,43740
53418,43746
53425,43752
53431,43759
53437,43767
53442,43775
53446,43783
53449,43792
53451,43801
53453,43810
53453,43820
53453,44179
53453,44189
53451,44198
53449,44207
53446,44216
53442,44224
53437,44232
53431,44240
53425,44247
53418,44253
53411,44259
53403,44264
53394,44268
53385,44271
53376,44273
53367,44275
53357,44275
53165,44275
53156,44275
53147,44273
53137,44271
53129,44268
53120,44264
53112,44259
53104,44253
53097,44247
53091,44240
53086,44232
53081,44224
53077,44216
53074,44207
53071,44198
53070,44189
53069,44179
53069,43820
53070,43810
53071,43801
53074,43792
53077,43783
53081,43775
53086,43767
53091,43759
53097,43752
53104,43746
53112,43740
53120,43735
53129,43731
53137,43728
53147,43726
53156,43724
53165,43724
53357,43724
53367,43724
Z" /> 
<path style="fill:#000000; fill-opacity:1.0; 
stroke:#000000; stroke-width:0; stroke-opacity:1; 
stroke-linecap:round; stroke-linejoin:round;fill-rule:evenodd;"
d="M 54105,43724
54114,43726
54123,43728
54132,43731
54141,43735
54149,43740
54156,43746
54163,43752
54170,43759
54175,43767
54180,43775
54184,43783
54187,43792
54190,43801
54191,43810
54191,43820
54191,44179
54191,44189
54190,44198
54187,44207
54184,44216
54180,44224
54175,44232
54170,44240
54163,44247
54156,44253
54149,44259
54141,44264
54132,44268
54123,44271
54114,44273
54105,44275
54095,44275
53904,44275
53894,44275
53885,44273
53876,44271
53867,44268
53858,44264
53850,44259
53843,44253
53836,44247
53829,44240
53824,44232
53819,44224
53815,44216
53812,44207
53809,44198
53808,44189
53808,44179
53808,43820
53808,43810
53809,43801
53812,43792
53815,43783
53819,43775
53824,43767
53829,43759
53836,43752
53843,43746
53850,43740
53858,43735
53867,43731
53876,43728
53885,43726
53894,43724
53904,43724
54095,43724
54105,43724
Z" /> 
</g>
<g >
</g>
<g style="fill:#000000; fill-opacity:1.0; 
stroke:#000000; stroke-width:0; stroke-opacity:1; 
stroke-linecap:round; stroke-linejoin:round;">
<circle cx="53015.7" cy="41500" r="413.386" /> 
</g>
<g style="fill:#000000; fill-opacity:1.0; 
stroke:#000000; stroke-width:39.3701; stroke-opacity:1; 
stroke-linecap:round; stroke-linejoin:round;">
</g>
<g style="fill:#000000; fill-opacity:1.0; 
stroke:#000000; stroke-width:0; stroke-opacity:1; 
stroke-linecap:round; stroke-linejoin:round;">
<path style="fill:#000000; fill-opacity:1.0; 
stroke:#000000; stroke-width:0; stroke-opacity:1; 
stroke-linecap:round; stroke-linejoin:round;fill-rule:evenodd;"
d="M 54413,41086
54413,41913
53586,41913
53586,41086
54413,41086
Z" /> 
</g>
<g >
</g>
<g style="fill:#000000; fill-opacity:1.0; 
stroke:#000000; stroke-width:0; stroke-opacity:1; 
stroke-linecap:round; stroke-linejoin:round;">
<path style="fill:#000000; fill-opacity:1.0; 
stroke:#000000; stroke-width:0; stroke-opacity:1; 
stroke-linecap:round; stroke-linejoin:round;fill-rule:evenodd;"
d="M 55867,40724
55876,40726
55885,40728
55894,40731
55903,40735
55911,40740
55918,40746
55925,40752
55931,40759
55937,40767
55942,40775
55946,40783
55949,40792
55951,40801
55953,40810
55953,40820
55953,41179
55953,41189
55951,41198
55949,41207
55946,41216
55942,41224
55937,41232
55931,41240
55925,41247
55918,41253
55911,41259
55903,41264
55894,41268
55885,41271
55876,41273
55867,41275
55857,41275
55665,41275
55656,41275
55647,41273
55637,41271
55629,41268
55620,41264
55612,41259
55604,41253
55597,41247
55591,41240
55586,41232
55581,41224
55577,41216
55574,41207
55571,41198
55570,41189
55569,41179
55569,40820
55570,40810
55571,40801
55574,40792
55577,40783
55581,40775
55586,40767
55591,40759
55597,40752
55604,40746
55612,40740
55620,40735
55629,40731
55637,40728
55647,40726
55656,40724
55665,40724
55857,40724
55867,40724
Z" /> 
<path style="fill:#000000; fill-opacity:1.0; 
stroke:#000000; stroke-width:0; stroke-opacity:1; 
stroke-linecap:round; stroke-linejoin:round;fill-rule:evenodd;"
d="M 56605,40724
56614,40726
56623,40728
56632,40731
56641,40735
56649,40740
56656,40746
56663,40752
56670,40759
56675,40767
56680,40775
56684,40783
56687,40792
56690,40801
56691,40810
56691,40820
56691,41179
56691,41189
56690,41198
56687,41207
56684,41216
56680,41224
56675,41232
56670,41240
56663,41247
56656,41253
56649,41259
56641,41264
56632,41268
56623,41271
56614,41273
56605,41275
56595,41275
56404,41275
56394,41275
56385,41273
56376,41271
56367,41268
56358,41264
56350,41259
56343,41253
56336,41247
56329,41240
56324,41232
56319,41224
56315,41216
56312,41207
56309,41198
56308,41189
56308,41179
56308,40820
56308,40810
56309,40801
56312,40792
56315,40783
56319,40775
56324,40767
56329,40759
56336,40752
56343,40746
56350,40740
56358,40735
56367,40731
56376,40728
56385,40726
56394,40724
56404,40724
56595,40724
56605,40724
Z" /> 
</g>
<g >
</g>
<g style="fill:#000000; fill-opacity:1.0; 
stroke:#000000; stroke-width:0; stroke-opacity:1; 
stroke-linecap:round; stroke-linejoin:round;">
<path style="fill:#000000; fill-opacity:1.0; 
stroke:#000000; stroke-width:0; stroke-opacity:1; 
stroke-linecap:round; stroke-linejoin:round;fill-rule:evenodd;"
d="M 57867,34724
57876,34726
57885,34728
57894,34731
57903,34735
57911,34740
57918,34746
57925,34752
57931,34759
57937,34767
57942,34775
57946,34783
57949,34792
57951,34801
57953,34810
57953,34820
57953,35179
57953,35189
57951,35198
57949,35207
57946,35216
57942,35224
57937,35232
57931,35240
57925,35247
57918,35253
57911,35259
57903,35264
57894,35268
57885,35271
57876,35273
57867,35275
57857,35275
57665,35275
57656,35275
57647,35273
57637,35271
57629,35268
57620,35264
57612,35259
57604,35253
57597,35247
57591,35240
57586,35232
57581,35224
57577,35216
57574,35207
57571,35198
57570,35189
57569,35179
57569,34820
57570,34810
57571,34801
57574,34792
57577,34783
57581,34775
57586,34767
57591,34759
57597,34752
57604,34746
57612,34740
57620,34735
57629,34731
57637,34728
57647,34726
57656,34724
57665,34724
57857,34724
57867,34724
Z" /> 
<path style="fill:#000000; fill-opacity:1.0; 
stroke:#000000; stroke-width:0; stroke-opacity:1; 
stroke-linecap:round; stroke-linejoin:round;fill-rule:evenodd;"
d="M 58605,34724
58614,34726
58623,34728
58632,34731
58641,34735
58649,34740
58656,34746
58663,34752
58670,34759
58675,34767
58680,34775
58684,34783
58687,34792
58690,34801
58691,34810
58691,34820
58691,35179
58691,35189
58690,35198
58687,35207
58684,35216
58680,35224
58675,35232
58670,35240
58663,35247
58656,35253
58649,35259
58641,35264
58632,35268
58623,35271
58614,35273
58605,35275
58595,35275
58404,35275
58394,35275
58385,35273
58376,35271
58367,35268
58358,35264
58350,35259
58343,35253
58336,35247
58329,35240
58324,35232
58319,35224
58315,35216
58312,35207
58309,35198
58308,35189
58308,35179
58308,34820
58308,34810
58309,34801
58312,34792
58315,34783
58319,34775
58324,34767
58329,34759
58336,34752
58343,34746
58350,34740
58358,34735
58367,34731
58376,34728
58385,34726
58394,34724
58404,34724
58595,34724
58605,34724
Z" /> 
</g>
<g >
</g>
<g >
</g>
<g style="fill:#000000; fill-opacity:1.0; 
stroke:#000000; stroke-width:0; stroke-opacity:1; 
stroke-linecap:round; stroke-linejoin:round;">
</g>
<g style="fill:#000000; fill-opacity:1.0; 
stroke:#000000; stroke-width:157.48; stroke-opacity:1; 
stroke-linecap:round; stroke-linejoin:round;">
</g>
<g style="fill:#000000; fill-opacity:0.0; 
stroke:#000000; stroke-width:157.48; stroke-opacity:1; 
stroke-linecap:round; stroke-linejoin:round;">
<path d="M53500 35775
L53000 35775
" />
<path d="M53500 37724
L53000 37724
" />
<path d="M53015 35759
L53000 35775
" />
<path d="M53015 33000
L53015 35759
" />
<path d="M53000 37724
L53000 38600
" />
<path d="M53000 38600
L53261 38861
" />
<path d="M53261 38861
L53261 39500
" />
<path d="M53015 40707
L53015 41500
" />
<path d="M53261 40461
L53015 40707
" />
<path d="M53261 42961
L53261 44000
" />
<path d="M53015 41500
L53015 42715
" />
<path d="M53015 42715
L53261 42961
" />
<path d="M53500 45000
L53261 44761
" />
<path d="M53261 44761
L53261 44000
" />
<path d="M55500 44000
L55500 45000
" />
<path d="M55500 45000
L53500 45000
" />
<path d="M57000 32500
L57000 32972
" />
<path d="M55900 32500
L54700 33700
" />
<path d="M57000 32500
L55900 32500
" />
<path d="M53000 37724
L53000 36700
" />
<path d="M53000 36700
L53000 35775
" />
<path d="M54700 36400
L54400 36700
" />
<path d="M54400 36700
L53000 36700
" />
<path d="M54700 33700
L54700 36400
" />
<path d="M55500 43000
L55500 44000
" />
<path d="M60850 46250
L60850 44975
" />
<path d="M60850 44975
L58875 43000
" />
<path d="M60500 46666
L60500 46250
" />
<path d="M60500 46250
L60850 46250
" />
<path d="M55500 38400
L55500 39500
" />
<path d="M56500 36500
L56500 37400
" />
<path d="M56500 37400
L55500 38400
" />
<path d="M53261 39500
L53261 40461
" />
<path d="M55761 40311
L55761 41000
" />
<path d="M55500 39500
L55500 40050
" />
<path d="M55500 40050
L55761 40311
" />
<path d="M55761 42988
L55750 43000
" />
<path d="M55761 41000
L55761 42988
" />
<path d="M58875 43000
L55750 43000
" />
<path d="M55750 43000
L55500 43000
" />
<path d="M57761 35688
L57761 35000
" />
<path d="M57700 35750
L57761 35688
" />
<path d="M56500 36500
L57250 35750
" />
<path d="M57250 35750
L57700 35750
" />
<path d="M58500 35000
L58500 36500
" />
<path d="M56500 38800
L56500 39500
" />
<path d="M56500 38600
L56500 38800
" />
<path d="M57500 36500
L57500 37600
" />
<path d="M57600 38000
L57350 37750
" />
<path d="M60047 38000
L57600 38000
" />
<path d="M57500 37600
L57350 37750
" />
<path d="M57350 37750
L56500 38600
" />
<path d="M56500 41000
L56500 39500
" />
<path d="M55100 37700
L55500 37300
" />
<path d="M54181 37700
L55100 37700
" />
<path d="M54000 37724
L54157 37724
" />
<path d="M55500 37300
L55500 36500
" />
<path d="M54157 37724
L54181 37700
" />
<path d="M54000 44000
L54000 42300
" />
<path d="M54000 42300
L54000 41500
" />
<path d="M54000 37724
L54000 39500
" />
<path d="M54000 39500
L54000 41500
" />
<path d="M58500 40500
L58500 39500
" />
<path d="M59600 41600
L58500 40500
" />
<path d="M61248 45800
L61248 44848
" />
<path d="M61248 44848
L59600 43200
" />
<path d="M59600 43200
L59600 42850
" />
<path d="M59600 42850
L59600 41600
" />
<path d="M55500 36500
L55500 35750
" />
<path d="M55500 35750
L55500 35000
" />
<path d="M56500 35750
L55500 35750
" />
<path d="M57000 35250
L56500 35750
" />
<path d="M57000 34350
L57000 35250
" />
<path d="M59000 34100
L57250 34100
" />
<path d="M61550 40000
L61550 36650
" />
<path d="M57250 34100
L57000 34350
" />
<path d="M62500 40950
L61550 40000
" />
<path d="M59611 42861
L61138 42861
" />
<path d="M59600 42850
L59611 42861
" />
<path d="M61400 42600
L63700 42600
" />
<path d="M61550 36650
L59000 34100
" />
<path d="M61138 42861
L61400 42600
" />
<path d="M63700 42600
L63700 41150
" />
<path d="M63500 40950
L62500 40950
" />
<path d="M63700 41150
L63500 40950
" />
<path d="M58000 32500
L58000 30900
" />
<path d="M58000 30900
L54000 30900
" />
<path d="M54000 33000
L54000 35775
" />
<path d="M54000 30900
L54000 32200
" />
<path d="M54000 32200
L54000 33000
" />
<path d="M52500 32200
L54000 32200
" />
<path d="M51800 44900
L51800 32900
" />
<path d="M55500 47000
L53900 47000
" />
<path d="M51800 32900
L52500 32200
" />
<path d="M53900 47000
L51800 44900
" />
<path d="M63000 41950
L62940 41950
" />
<path d="M62940 41950
L61000 40009
" />
<path d="M61000 40009
L61000 37456
" />
<path d="M60559 37015
L60047 37015
" />
<path d="M61000 37456
L60559 37015
" />
<path d="M60500 43250
L61750 43250
" />
<path d="M61750 43250
L63000 43250
" />
<path d="M63000 43584
L63000 43250
" />
<path d="M61900 47200
L63000 46100
" />
<path d="M63000 46100
L63000 43584
" />
<path d="M60874 46666
L60874 47174
" />
<path d="M60900 47200
L61900 47200
" />
<path d="M60874 47174
L60900 47200
" />
<path d="M61750 41350
L61750 41950
" />
<path d="M61530 41350
L61750 41350
" />
<path d="M60047 38984
L60047 39866
" />
<path d="M60047 39866
L61530 41350
" />
<path d="M60000 33325
L60000 32500
" />
<path d="M59525 33800
L60000 33325
" />
<path d="M56650 33800
L59525 33800
" />
<path d="M56238 35000
L56238 34211
" />
<path d="M56238 34211
L56650 33800
" />
</g>
<g style="fill:#000000; fill-opacity:0.0; 
stroke:#000000; stroke-width:393.701; stroke-opacity:1; 
stroke-linecap:round; stroke-linejoin:round;">
<path d="M57500 45500
L57500 44000
" />
<path d="M58320 47720
L58300 47700
" />
<path d="M60800 31100
L64400 34700
" />
<path d="M59000 31100
L60800 31100
" />
<path d="M59000 32500
L59000 31100
" />
<path d="M64400 34700
L64400 45600
" />
<path d="M58300 47700
L58300 46300
" />
<path d="M62279 47720
L58320 47720
" />
<path d="M58300 46300
L57500 45500
" />
<path d="M64400 45600
L62279 47720
" />
</g>
<g style="fill:#000000; fill-opacity:0.0; 
stroke:#000000; stroke-width:157.48; stroke-opacity:1; 
stroke-linecap:round; stroke-linejoin:round;">
<path d="M60500 45800
L60500 45100
" />
<path d="M59400 44000
L58500 44000
" />
<path d="M60500 45100
L59400 44000
" />
<path d="M56500 44000
L56500 47000
" />
<path d="M60500 41500
L60500 42511
" />
<path d="M59300 40300
L60500 41500
" />
<path d="M59300 39100
L59300 40300
" />
<path d="M58900 38700
L59300 39100
" />
<path d="M57500 39500
L58300 38700
" />
<path d="M58300 38700
L58900 38700
" />
</g>
<g >
</g>
</g>
<g style="fill:#FFFFFF; fill-opacity:0.0; 
stroke:#FFFFFF; stroke-width:157.48; stroke-opacity:1; 
stroke-linecap:round; stroke-linejoin:round;">
</g>
<g style="fill:#FFFFFF; fill-opacity:1.0; 
stroke:#FFFFFF; stroke-width:0; stroke-opacity:1; 
stroke-linecap:round; stroke-linejoin:round;">
<circle cx="56500" cy="47000" r="78.7402" /> 
</g>
<g style="fill:#FFFFFF; fill-opacity:1.0; 
stroke:#FFFFFF; stroke-width:39.3701; stroke-opacity:1; 
stroke-linecap:round; stroke-linejoin:round;">
</g>
<g style="fill:#FFFFFF; fill-opacity:1.0; 
stroke:#FFFFFF; stroke-width:0; stroke-opacity:1; 
stroke-linecap:round; stroke-linejoin:round;">
<circle cx="55500" cy="47000" r="78.7402" /> 
</g>
<g style="fill:#FFFFFF; fill-opacity:1.0; 
stroke:#FFFFFF; stroke-width:39.3701; stroke-opacity:1; 
stroke-linecap:round; stroke-linejoin:round;">
</g>
<g style="fill:#FFFFFF; fill-opacity:1.0; 
stroke:#FFFFFF; stroke-width:0; stroke-opacity:1; 
stroke-linecap:round; stroke-linejoin:round;">
<circle cx="55500" cy="36500" r="78.7402" /> 
</g>
<g style="fill:#FFFFFF; fill-opacity:1.0; 
stroke:#FFFFFF; stroke-width:39.3701; stroke-opacity:1; 
stroke-linecap:round; stroke-linejoin:round;">
</g>
<g style="fill:#FFFFFF; fill-opacity:1.0; 
stroke:#FFFFFF; stroke-width:0; stroke-opacity:1; 
stroke-linecap:round; stroke-linejoin:round;">
<circle cx="58500" cy="39500" r="78.7402" /> 
</g>
<g style="fill:#FFFFFF; fill-opacity:1.0; 
stroke:#FFFFFF; stroke-width:39.3701; stroke-opacity:1; 
stroke-linecap:round; stroke-linejoin:round;">
</g>
<g style="fill:#FFFFFF; fill-opacity:1.0; 
stroke:#FFFFFF; stroke-width:0; stroke-opacity:1; 
stroke-linecap:round; stroke-linejoin:round;">
<circle cx="56500" cy="36500" r="78.7402" /> 
</g>
<g style="fill:#FFFFFF; fill-opacity:1.0; 
stroke:#FFFFFF; stroke-width:39.3701; stroke-opacity:1; 
stroke-linecap:round; stroke-linejoin:round;">
</g>
<g style="fill:#FFFFFF; fill-opacity:1.0; 
stroke:#FFFFFF; stroke-width:0; stroke-opacity:1; 
stroke-linecap:round; stroke-linejoin:round;">
<circle cx="57500" cy="39500" r="78.7402" /> 
</g>
<g style="fill:#FFFFFF; fill-opacity:1.0; 
stroke:#FFFFFF; stroke-width:39.3701; stroke-opacity:1; 
stroke-linecap:round; stroke-linejoin:round;">
</g>
<g style="fill:#FFFFFF; fill-opacity:1.0; 
stroke:#FFFFFF; stroke-width:0; stroke-opacity:1; 
stroke-linecap:round; stroke-linejoin:round;">
<circle cx="57500" cy="36500" r="78.7402" /> 
</g>
<g style="fill:#FFFFFF; fill-opacity:1.0; 
stroke:#FFFFFF; stroke-width:39.3701; stroke-opacity:1; 
stroke-linecap:round; stroke-linejoin:round;">
</g>
<g style="fill:#FFFFFF; fill-opacity:1.0; 
stroke:#FFFFFF; stroke-width:0; stroke-opacity:1; 
stroke-linecap:round; stroke-linejoin:round;">
<circle cx="56500" cy="39500" r="78.7402" /> 
</g>
<g style="fill:#FFFFFF; fill-opacity:1.0; 
stroke:#FFFFFF; stroke-width:39.3701; stroke-opacity:1; 
stroke-linecap:round; stroke-linejoin:round;">
</g>
<g style="fill:#FFFFFF; fill-opacity:1.0; 
stroke:#FFFFFF; stroke-width:0; stroke-opacity:1; 
stroke-linecap:round; stroke-linejoin:round;">
<circle cx="58500" cy="36500" r="78.7402" /> 
</g>
<g style="fill:#FFFFFF; fill-opacity:1.0; 
stroke:#FFFFFF; stroke-width:39.3701; stroke-opacity:1; 
stroke-linecap:round; stroke-linejoin:round;">
</g>
<g style="fill:#FFFFFF; fill-opacity:1.0; 
stroke:#FFFFFF; stroke-width:0; stroke-opacity:1; 
stroke-linecap:round; stroke-linejoin:round;">
<circle cx="55500" cy="39500" r="78.7402" /> 
</g>
<g style="fill:#FFFFFF; fill-opacity:1.0; 
stroke:#FFFFFF; stroke-width:39.3701; stroke-opacity:1; 
stroke-linecap:round; stroke-linejoin:round;">
</g>
<g style="fill:#FFFFFF; fill-opacity:1.0; 
stroke:#FFFFFF; stroke-width:0; stroke-opacity:1; 
stroke-linecap:round; stroke-linejoin:round;">
<circle cx="63000" cy="36110.2" r="354.331" /> 
</g>
<g style="fill:#FFFFFF; fill-opacity:1.0; 
stroke:#FFFFFF; stroke-width:39.3701; stroke-opacity:1; 
stroke-linecap:round; stroke-linejoin:round;">
</g>
<g style="fill:#FFFFFF; fill-opacity:1.0; 
stroke:#FFFFFF; stroke-width:0; stroke-opacity:1; 
stroke-linecap:round; stroke-linejoin:round;">
<circle cx="63000" cy="39889.8" r="354.331" /> 
</g>
<g style="fill:#FFFFFF; fill-opacity:1.0; 
stroke:#FFFFFF; stroke-width:39.3701; stroke-opacity:1; 
stroke-linecap:round; stroke-linejoin:round;">
</g>
<g style="fill:#FFFFFF; fill-opacity:1.0; 
stroke:#FFFFFF; stroke-width:0; stroke-opacity:1; 
stroke-linecap:round; stroke-linejoin:round;">
<circle cx="60047.2" cy="38984.3" r="78.7402" /> 
</g>
<g style="fill:#FFFFFF; fill-opacity:1.0; 
stroke:#FFFFFF; stroke-width:39.3701; stroke-opacity:1; 
stroke-linecap:round; stroke-linejoin:round;">
</g>
<g style="fill:#FFFFFF; fill-opacity:1.0; 
stroke:#FFFFFF; stroke-width:0; stroke-opacity:1; 
stroke-linecap:round; stroke-linejoin:round;">
<circle cx="60047.2" cy="38000" r="78.7402" /> 
</g>
<g style="fill:#FFFFFF; fill-opacity:1.0; 
stroke:#FFFFFF; stroke-width:39.3701; stroke-opacity:1; 
stroke-linecap:round; stroke-linejoin:round;">
</g>
<g style="fill:#FFFFFF; fill-opacity:1.0; 
stroke:#FFFFFF; stroke-width:0; stroke-opacity:1; 
stroke-linecap:round; stroke-linejoin:round;">
<circle cx="60047.2" cy="37015.7" r="78.7402" /> 
</g>
<g style="fill:#FFFFFF; fill-opacity:1.0; 
stroke:#FFFFFF; stroke-width:39.3701; stroke-opacity:1; 
stroke-linecap:round; stroke-linejoin:round;">
</g>
<g style="fill:#FFFFFF; fill-opacity:1.0; 
stroke:#FFFFFF; stroke-width:0; stroke-opacity:1; 
stroke-linecap:round; stroke-linejoin:round;">
<circle cx="58500" cy="44000" r="78.7402" /> 
</g>
<g style="fill:#FFFFFF; fill-opacity:1.0; 
stroke:#FFFFFF; stroke-width:39.3701; stroke-opacity:1; 
stroke-linecap:round; stroke-linejoin:round;">
</g>
<g style="fill:#FFFFFF; fill-opacity:1.0; 
stroke:#FFFFFF; stroke-width:0; stroke-opacity:1; 
stroke-linecap:round; stroke-linejoin:round;">
<circle cx="57500" cy="44000" r="78.7402" /> 
</g>
<g style="fill:#FFFFFF; fill-opacity:1.0; 
stroke:#FFFFFF; stroke-width:39.3701; stroke-opacity:1; 
stroke-linecap:round; stroke-linejoin:round;">
</g>
<g style="fill:#FFFFFF; fill-opacity:1.0; 
stroke:#FFFFFF; stroke-width:0; stroke-opacity:1; 
stroke-linecap:round; stroke-linejoin:round;">
<circle cx="56500" cy="44000" r="78.7402" /> 
</g>
<g style="fill:#FFFFFF; fill-opacity:1.0; 
stroke:#FFFFFF; stroke-width:39.3701; stroke-opacity:1; 
stroke-linecap:round; stroke-linejoin:round;">
</g>
<g style="fill:#FFFFFF; fill-opacity:1.0; 
stroke:#FFFFFF; stroke-width:0; stroke-opacity:1; 
stroke-linecap:round; stroke-linejoin:round;">
<circle cx="55500" cy="44000" r="78.7402" /> 
</g>
<g style="fill:#FFFFFF; fill-opacity:1.0; 
stroke:#FFFFFF; stroke-width:39.3701; stroke-opacity:1; 
stroke-linecap:round; stroke-linejoin:round;">
</g>
<g style="fill:#FFFFFF; fill-opacity:1.0; 
stroke:#FFFFFF; stroke-width:0; stroke-opacity:1; 
stroke-linecap:round; stroke-linejoin:round;">
<circle cx="60000" cy="32500" r="78.7402" /> 
</g>
<g style="fill:#FFFFFF; fill-opacity:1.0; 
stroke:#FFFFFF; stroke-width:39.3701; stroke-opacity:1; 
stroke-linecap:round; stroke-linejoin:round;">
</g>
<g style="fill:#FFFFFF; fill-opacity:1.0; 
stroke:#FFFFFF; stroke-width:0; stroke-opacity:1; 
stroke-linecap:round; stroke-linejoin:round;">
<circle cx="59000" cy="32500" r="78.7402" /> 
</g>
<g style="fill:#FFFFFF; fill-opacity:1.0; 
stroke:#FFFFFF; stroke-width:39.3701; stroke-opacity:1; 
stroke-linecap:round; stroke-linejoin:round;">
</g>
<g style="fill:#FFFFFF; fill-opacity:1.0; 
stroke:#FFFFFF; stroke-width:0; stroke-opacity:1; 
stroke-linecap:round; stroke-linejoin:round;">
<circle cx="58000" cy="32500" r="78.7402" /> 
</g>
<g style="fill:#FFFFFF; fill-opacity:1.0; 
stroke:#FFFFFF; stroke-width:39.3701; stroke-opacity:1; 
stroke-linecap:round; stroke-linejoin:round;">
</g>
<g style="fill:#FFFFFF; fill-opacity:1.0; 
stroke:#FFFFFF; stroke-width:0; stroke-opacity:1; 
stroke-linecap:round; stroke-linejoin:round;">
<circle cx="57000" cy="32500" r="78.7402" /> 
</g>
<g style="fill:#FFFFFF; fill-opacity:1.0; 
stroke:#FFFFFF; stroke-width:39.3701; stroke-opacity:1; 
stroke-linecap:round; stroke-linejoin:round;">
</g>
<g style="fill:#FFFFFF; fill-opacity:1.0; 
stroke:#FFFFFF; stroke-width:0; stroke-opacity:1; 
stroke-linecap:round; stroke-linejoin:round;">
<circle cx="53015.7" cy="33000" r="78.7402" /> 
</g>
<g style="fill:#FFFFFF; fill-opacity:1.0; 
stroke:#FFFFFF; stroke-width:39.3701; stroke-opacity:1; 
stroke-linecap:round; stroke-linejoin:round;">
</g>
<g style="fill:#FFFFFF; fill-opacity:1.0; 
stroke:#FFFFFF; stroke-width:0; stroke-opacity:1; 
stroke-linecap:round; stroke-linejoin:round;">
<circle cx="54000" cy="33000" r="78.7402" /> 
</g>
<g style="fill:#FFFFFF; fill-opacity:1.0; 
stroke:#FFFFFF; stroke-width:39.3701; stroke-opacity:1; 
stroke-linecap:round; stroke-linejoin:round;">
</g>
<g style="fill:#FFFFFF; fill-opacity:1.0; 
stroke:#FFFFFF; stroke-width:0; stroke-opacity:1; 
stroke-linecap:round; stroke-linejoin:round;">
<circle cx="53015.7" cy="41500" r="78.7402" /> 
</g>
<g style="fill:#FFFFFF; fill-opacity:1.0; 
stroke:#FFFFFF; stroke-width:39.3701; stroke-opacity:1; 
stroke-linecap:round; stroke-linejoin:round;">
</g>
<g style="fill:#FFFFFF; fill-opacity:1.0; 
stroke:#FFFFFF; stroke-width:0; stroke-opacity:1; 
stroke-linecap:round; stroke-linejoin:round;">
<circle cx="54000" cy="41500" r="78.7402" /> 
</g>
<g style="fill:#FFFFFF; fill-opacity:1.0; 
stroke:#FFFFFF; stroke-width:39.3701; stroke-opacity:1; 
stroke-linecap:round; stroke-linejoin:round;">
</g>
<g style="fill:#000000; fill-opacity:1.0; 
stroke:#000000; stroke-width:39.3701; stroke-opacity:1; 
stroke-linecap:round; stroke-linejoin:round;">
</g> 
</svg>
